<svg width="32" height="32" viewBox="0 0 32 32" fill="none" xmlns="http://www.w3.org/2000/svg">
<path d="M16 2.57153C18.9553 2.57153 21.7895 3.74551 23.8792 5.8352C25.9689 7.92489 27.1429 10.7591 27.1429 13.7144C27.1429 18.423 23.8343 23.5544 17.3029 29.1635C16.9397 29.4755 16.4766 29.6469 15.9979 29.6464C15.5191 29.646 15.0563 29.4739 14.6937 29.1612L14.2617 28.7864C8.01943 23.3235 4.85715 18.3178 4.85715 13.7144C4.85715 10.7591 6.03112 7.92489 8.12081 5.8352C10.2105 3.74551 13.0447 2.57153 16 2.57153ZM16 9.42868C14.8634 9.42868 13.7733 9.88021 12.9695 10.6839C12.1658 11.4877 11.7143 12.5777 11.7143 13.7144C11.7143 14.851 12.1658 15.9411 12.9695 16.7448C13.7733 17.5486 14.8634 18.0001 16 18.0001C17.1366 18.0001 18.2267 17.5486 19.0305 16.7448C19.8342 15.9411 20.2857 14.851 20.2857 13.7144C20.2857 12.5777 19.8342 11.4877 19.0305 10.6839C18.2267 9.88021 17.1366 9.42868 16 9.42868Z" fill="#E288A3"/>
</svg>
