<svg width="94" height="94" viewBox="0 0 94 94" fill="none" xmlns="http://www.w3.org/2000/svg">
<g opacity="0.5">
<g clip-path="url(#clip0_97_1478)">
<path d="M41.9857 70.1862L41.9858 70.1867C42.9408 73.3177 43.7834 76.4935 44.453 79.7016M41.9857 70.1862L43.9636 79.8037M41.9857 70.1862C39.1128 60.8011 32.8738 54.5448 23.451 51.9187L23.4507 51.9186M41.9857 70.1862L23.4507 51.9186M44.453 79.7016L43.9636 79.8037M44.453 79.7016C44.453 79.7014 44.453 79.7013 44.4529 79.7012L43.9636 79.8037M44.453 79.7016C45.1329 82.9461 45.7112 86.2185 46.2877 89.4808C46.5213 90.8023 46.7545 92.1222 46.9941 93.4379M43.9636 79.8037C44.6419 83.0405 45.2179 86.3 45.7937 89.5586C46.0508 91.0137 46.308 92.4687 46.5741 93.9214L46.5937 93.4218L46.5959 93.4218C46.7276 93.427 46.8603 93.4322 46.9941 93.4379M46.9941 93.4379C47.0079 93.5138 47.0218 93.5896 47.0356 93.6654C47.049 93.591 47.0622 93.5163 47.0755 93.4415M46.9941 93.4379C47.0212 93.4391 47.0483 93.4403 47.0755 93.4415M47.0755 93.4415C47.1129 93.2297 47.1499 93.0164 47.1871 92.8021C47.3238 92.0151 47.4626 91.2152 47.6312 90.4307M47.0755 93.4415L47.6312 90.4307M47.6312 90.4307C48.0539 88.4396 48.4517 86.4347 48.8502 84.4259C49.7802 79.7388 50.7144 75.0305 51.9792 70.426C54.6087 60.8489 61.0492 54.6453 70.5907 51.8903C74.6882 50.7026 78.8594 49.7668 83.0181 48.881L83.0185 48.8809C85.5328 48.3477 88.0737 47.9209 90.6024 47.4963C91.5553 47.3363 92.5063 47.1766 93.4536 47.0115L93.4545 46.9665C93.1488 46.9048 92.8417 46.8436 92.5338 46.7822C91.7872 46.6335 91.0363 46.4839 90.2904 46.3237M47.6312 90.4307L90.2904 46.3237M23.4507 51.9186C18.9678 50.6723 14.3803 49.7609 9.8151 48.854C7.87534 48.4687 5.93961 48.0841 4.01763 47.675M23.4507 51.9186L22.4864 42.3611M22.4864 42.3611L22.4859 42.3612C18.5751 43.384 14.608 44.2064 10.657 45.0254C9.47419 45.2705 8.29283 45.5154 7.11485 45.7653C5.48054 46.1128 3.82614 46.3997 2.1824 46.6847C1.62021 46.7822 1.05926 46.8795 0.500796 46.9789C0.500756 46.9862 0.50072 46.9935 0.500684 47.0008C0.784956 47.0539 1.0706 47.1063 1.35699 47.1588C2.24285 47.3213 3.13587 47.485 4.01763 47.675M22.4864 42.3611C33.3292 39.5136 39.9889 32.3558 42.653 21.6117C43.6452 17.6122 44.4403 13.5586 45.2325 9.51984C45.5632 7.8335 45.8935 6.14976 46.2374 4.47362C46.4454 3.46389 46.6182 2.44039 46.7893 1.4268C46.8344 1.1597 46.8794 0.893292 46.9249 0.628005C46.9625 0.76798 47.0001 0.907267 47.0377 1.04604C47.2331 1.76857 47.4248 2.4774 47.5776 3.19917L47.5776 3.19923M22.4864 42.3611L47.5776 3.19923M4.01763 47.675C4.01781 47.675 4.018 47.6751 4.01819 47.6751L3.9129 48.1638L4.01699 47.6748C4.0172 47.6749 4.01742 47.6749 4.01763 47.675ZM47.5776 3.19923C48.0175 5.27668 48.4323 7.36708 48.8479 9.46085C49.7413 13.9628 50.6379 18.4804 51.7931 22.9185M47.5776 3.19923L48.0667 3.09566C48.5095 5.18664 48.9258 7.28425 49.342 9.38158C50.2339 13.8758 51.1255 18.3687 52.277 22.7926M52.277 22.7926L51.793 22.9183C51.793 22.9184 51.7931 22.9184 51.7931 22.9185M52.277 22.7926C54.7567 32.341 60.8877 38.7937 70.4142 41.4616L52.277 22.7926ZM51.7931 22.9185C54.3161 32.6332 60.5758 39.2256 70.2794 41.9431C74.8632 43.2273 79.5598 44.1607 84.2328 45.0893C86.2601 45.4922 88.2831 45.8943 90.2904 46.3237M51.7931 22.9185L90.2904 46.3237" stroke="white"/>
</g>
</g>
<defs>
<clipPath id="clip0_97_1478">
<rect width="93.963" height="93.963" fill="white"/>
</clipPath>
</defs>
</svg>
